<svg id="Capa_1" enable-background="new 0 0 512 512" height="512" viewBox="0 0 512 512" width="512" xmlns="http://www.w3.org/2000/svg"><g><path d="m483.408 256c0 141.38-86.028 224.119-227.408 224.119-77.29 0-146.58-2.369-193.52-56.529-38.92-44.91-62.48-103.5-62.48-167.59 0-141.38 114.62-256 256-256 86.39 0 162.79 42.8 209.14 108.34 29.52 41.73 18.268 92.67 18.268 147.66z" fill="#8993da"/><path d="m512 134.47v121.53c0 141.38-114.62 256-256 256-77.29 0-146.58-34.25-193.52-88.41h39.39c14.43 0 26.13-11.7 26.13-26.14v-49.03c0-14.44 11.7-26.14 26.13-26.14h75.74c14.43 0 26.13-11.7 26.13-26.13v-55.54c0-14.43 11.7-26.13 26.13-26.13h75.74c14.43 0 26.13-11.7 26.13-26.14v-53.87c0-14.43 11.7-26.13 26.13-26.13h75.74c14.43 0 26.13 11.7 26.13 26.13z" fill="#ededed"/><g fill="#dddaec"><path d="m129.81 423.59h-27.94c14.43 0 26.13-11.7 26.13-26.14v-49.03c0-14.44 11.7-26.14 26.13-26.14h27.94c-14.43 0-26.13 11.7-26.13 26.14v49.03c0 14.44-11.7 26.14-26.13 26.14z"/><path d="m282.13 214.48h27.94c-14.43 0-26.13 11.7-26.13 26.13v55.54c0 14.43-11.7 26.13-26.13 26.13h-27.94c14.43 0 26.13-11.7 26.13-26.13v-55.54c0-14.43 11.7-26.13 26.13-26.13z"/><path d="m438.07 108.34c-14.43 0-26.13 11.7-26.13 26.13v53.87c0 14.44-11.7 26.14-26.13 26.14h-27.94c14.43 0 26.13-11.7 26.13-26.14v-53.87c0-14.43 11.7-26.13 26.13-26.13z"/></g><path d="m401.688.288h-65.957c-8.531 0-13.864 9.236-9.598 16.624l9.232 15.99c-9.594 13.845-14.963 30.468-14.963 47.624v38.359c-14.5-12.129-33.165-19.439-53.503-19.439-46.044 0-83.504 37.459-83.504 83.503v38.358c-14.5-12.129-33.166-19.439-53.504-19.439-46.044 0-83.503 37.459-83.503 83.503v104.641c0 8.284 6.716 15 15 15s15-6.716 15-15v-104.64c0-14.292 5.565-27.727 15.671-37.833s23.541-15.671 37.833-15.671c14.291 0 27.727 5.565 37.832 15.671s15.671 23.541 15.671 37.833v2.218c0 8.284 6.716 15 15 15s15-6.716 15-15v-104.64c0-14.292 5.565-27.727 15.671-37.833s23.541-15.671 37.833-15.671c14.291 0 27.727 5.565 37.832 15.671s15.671 23.541 15.671 37.833v2.218c0 8.284 6.716 15 15 15s15-6.716 15-15v-104.641c0-5.854.944-11.531 2.71-16.886l6 10.392c4.266 7.389 14.93 7.389 19.196 0l32.979-57.12c4.265-7.389-1.067-16.625-9.599-16.625z" fill="#dd636e"/></g></svg>