<svg enable-background="new 0 0 512 512" viewBox="0 0 512 512" xmlns="http://www.w3.org/2000/svg" xmlns:xlink="http://www.w3.org/1999/xlink"><linearGradient id="SVGID_1_" gradientUnits="userSpaceOnUse" x1="35.307" x2="476.693" y1="476.693" y2="35.307"><stop offset=".0335" stop-color="#0e69de"/><stop offset=".2252" stop-color="#376ada"/><stop offset=".599" stop-color="#826cd3"/><stop offset=".8667" stop-color="#b16dcf"/><stop offset="1" stop-color="#c36dcd"/></linearGradient><g id="_x31_4_Career_Ladder"><g><path d="m6.035 106v300c0 55.228 44.772 100 100 100h299.931c55.228 0 100-44.772 100-100v-300c0-55.228-44.772-100-100-100h-299.931c-55.229 0-100 44.772-100 100z" fill="url(#SVGID_1_)"/><g fill="#fff"><path d="m176.681 107.029c-16.66 5.261-25.934 23.057-20.659 39.734 5.246 16.619 23.043 25.923 39.731 20.662 16.663-5.261 25.885-23.037 20.61-39.719-5.258-16.649-23.065-25.924-39.682-20.677zm32.534 22.937c3.993 12.641-2.936 26.271-15.718 30.305-12.72 4.014-26.313-3.062-30.327-15.769-4.013-12.72 3.045-26.303 15.767-30.32 12.645-3.996 26.253 3.051 30.278 15.784z"/><path d="m413.156 99.465h-59.048c-.903 0-1.772.325-2.456.916l-26.65 23.101c-.82.713-1.294 1.748-1.294 2.834v90c0 2.07 1.68 3.75 3.75 3.75h85.698c2.07 0 3.75-1.68 3.75-3.75v-113.101c0-2.07-1.68-3.75-3.75-3.75zm-3.75 113.101h-78.198v-84.539l1.975-1.711h20.925v-18.136l1.402-1.215h53.896z"/><path d="m343.991 148.399c0 2.07 1.68 3.75 3.75 3.75h45.132c2.07 0 3.75-1.68 3.75-3.75s-1.68-3.75-3.75-3.75h-45.132c-2.07 0-3.75 1.679-3.75 3.75z"/><path d="m392.873 167.659h-45.132c-2.07 0-3.75 1.68-3.75 3.75s1.68 3.75 3.75 3.75h45.132c2.07 0 3.75-1.68 3.75-3.75s-1.68-3.75-3.75-3.75z"/><path d="m392.873 190.669h-45.132c-2.07 0-3.75 1.68-3.75 3.75s1.68 3.75 3.75 3.75h45.132c2.07 0 3.75-1.68 3.75-3.75s-1.68-3.75-3.75-3.75z"/><g><path d="m257.492 353.718c1.978-.625 3.071-2.732 2.446-4.705l-17.422-55.178c-.322-1.033-1.079-1.873-2.07-2.307l-35.293-15.447 7.271-40.569 46.357-7.061c5.645-.859 9.873-5.818 9.829-11.753-.049-6.2-4.973-11.502-11.816-11.492l-39.946.815c-.713-16.177-12.49-29.91-28.784-32.795l-30.703-5.51c-.879-.159-2.05.043-2.925.649l-47.148 32.62c-.791.547-1.343 1.379-1.538 2.322l-10.576 50.964c-.42 2.026.884 4.011 2.91 4.434 14.063 2.929 27.888-6.083 30.825-20.229l4.033-19.58 12.983-8.818-13.848 77.222c-.334 1.958-3.322 11.797-7.554 26.726l-17.93 19.753c-5.044 4.792-7.93 11.26-8.12 18.21-.195 6.963 2.339 13.574 7.129 18.616 1.487 1.559 3.932 1.538 5.396.044l39.355-40.125c.439-.447.757-.994.928-1.594l9.375-32.7 27.256 4.883 31.025 17.041 5.864 18.562c4.334 13.761 18.985 21.312 32.691 17.002zm-33.623-41.413c-34.621-18.934-32.892-18.257-34.028-18.464l-31.191-5.591c-1.89-.334-3.735.811-4.268 2.659l-10.049 35.042-35.679 36.379c-4.267-6.971-3.683-16.644 3.296-23.308l18.711-20.598c.391-.425.674-.935.83-1.487 8.336-29.365 8.265-27.957 8.135-29.246l15.254-85.061c.575-3.237-3.018-5.632-5.801-3.765l-21.611 14.683c-.806.549-1.367 1.392-1.563 2.346l-4.341 21.064c-1.852 8.936-9.737 14.8-18.145 14.8-.02 0-.044 0-.063-.002l9.434-45.454 44.712-30.938 29.243 5.247c13.867 2.456 23.569 14.912 22.563 28.972-.141 2.03 1.408 4.053 3.818 4.019l43.818-.894c2.147-.056 4.145 1.569 4.165 4.272.015 2.009-1.475 3.755-3.462 4.06l-49.009 7.463c-1.587.239-2.842 1.465-3.125 3.044l-8.267 46.121c-.308 1.707.601 3.401 2.188 4.097l36.445 15.952 15.664 49.617c-8.32.891-16.823-4.113-19.595-12.874l-6.313-19.998c-.287-.919-.921-1.693-1.766-2.157z"/><path d="m363.856 241.699v39.345h-44.989v39.345h-44.989v43.279h-44.988v48.867h179.954v-170.836z"/></g></g></g></g><g id="Layer_1"/></svg>