<svg height="512" viewBox="0 0 512 512" width="512" xmlns="http://www.w3.org/2000/svg" xmlns:xlink="http://www.w3.org/1999/xlink"><linearGradient id="linear-gradient" gradientUnits="userSpaceOnUse" x1="74.98" x2="437.02" y1="74.98" y2="437.02"><stop offset="0" stop-color="#21d1f7"/><stop offset="1" stop-color="#2196f3"/></linearGradient><linearGradient id="linear-gradient-2" gradientUnits="userSpaceOnUse" x1="260.74" x2="430.1" y1="274.56" y2="443.93"><stop offset="0" stop-color="#186eb3"/><stop offset=".93" stop-color="#186eb3" stop-opacity="0"/></linearGradient><g id="Layer_2" data-name="Layer 2"><g id="chat"><circle id="background" cx="256" cy="256" fill="url(#linear-gradient)" r="256"/><path d="m504.69 317c-24.43 100-107.59 177-210.85 192.25l-130-130 197.67-205.46z" fill="url(#linear-gradient-2)"/><path d="m256 131.18c-74.56 0-135 50.71-135 113.27 0 31.21 15.05 59.47 39.39 79.95v48.05a8.35 8.35 0 0 0 12.5 7.25l46-26.34a159.42 159.42 0 0 0 37.11 4.35c74.56 0 135-50.71 135-113.26s-60.44-113.27-135-113.27z" fill="#fff"/></g></g></svg>