<svg viewBox="0 0 512 512" xmlns="http://www.w3.org/2000/svg"><g id="Layer_2" data-name="Layer 2"><g id="Layer_2_copy_9" data-name="Layer 2 copy 9"><g id="_42" data-name="42"><circle id="background" cx="256" cy="256" fill="#da0a92" r="256"/><path d="m508.87 296.1c-16.54 105.21-97.19 189.15-200.71 210.58l-187.16-187.15-26.21-45v-49.46l20.6-44.39 34.41-26.35 43.66-9.75h125l54.56 15.73z" fill="#a80075"/><path d="m318.52 144.58h-125a102.49 102.49 0 0 0 -102.52 102.49 102.48 102.48 0 0 0 102.48 102.48h91.39l57.86 42.45a7 7 0 0 0 11.06-7.09l-8-39.07a102.52 102.52 0 0 0 75.2-98.8 102.49 102.49 0 0 0 -102.47-102.46zm-130.16 122a19.48 19.48 0 1 1 19.47-19.47 19.47 19.47 0 0 1 -19.47 19.43zm67.64 0a19.48 19.48 0 1 1 19.47-19.47 19.47 19.47 0 0 1 -19.47 19.43zm67.64 0a19.48 19.48 0 1 1 19.47-19.47 19.47 19.47 0 0 1 -19.47 19.43z" fill="#fff"/></g></g></g></svg>