<svg viewBox="0 0 512 512" xmlns="http://www.w3.org/2000/svg"><g id="Layer_2" data-name="Layer 2"><g id="Layer_2_copy_9" data-name="Layer 2 copy 9"><g id="_9" data-name="9"><circle id="background" cx="256" cy="256" fill="#24e864" r="256"/><path d="m507.25 305.29c-22.97 117.8-126.73 206.71-251.25 206.71q-8.91 0-17.67-.61l-126.84-126.84-5.36-8.66v-152.29l4.38-33.9 20.68-40.16 20.59-23 36.58-23.54 50.36-12 43.58 8.34 41.83 22.83z" fill="#00b52b"/><g fill="#fff"><path d="m381.3 221.5v2.1c0 78.63-64 142.6-142.6 142.6a143.59 143.59 0 0 1 -16.63-1 107.34 107.34 0 0 0 135.92 14l34.12 39.08a7.83 7.83 0 0 0 13.73-5.15v-123.27a106.93 106.93 0 0 0 -24.54-68.36z"/><path d="m371.32 223.6a132.6 132.6 0 1 0 -265.19 0v152.29a9.68 9.68 0 0 0 17 6.37l42.11-48.26a132.6 132.6 0 0 0 206.08-110.4zm-79.09-16.36a16.53 16.53 0 1 1 -16.53 16.53 16.53 16.53 0 0 1 16.53-16.53zm-107 33.06a16.53 16.53 0 1 1 16.53-16.53 16.53 16.53 0 0 1 -16.54 16.53zm37-16.53a16.53 16.53 0 1 1 16.52 16.53 16.53 16.53 0 0 1 -16.55-16.53z"/></g></g></g></g></svg>