<svg viewBox="0 0 512 512" xmlns="http://www.w3.org/2000/svg" xmlns:xlink="http://www.w3.org/1999/xlink"><linearGradient id="linear-gradient" gradientUnits="userSpaceOnUse" x1="380.68" x2="108.09" y1="393.26" y2="120.66"><stop offset="0" stop-color="#6f2efe"/><stop offset=".52" stop-color="#6f2efe"/><stop offset="1" stop-color="#ae90ff"/></linearGradient><linearGradient id="linear-gradient-2" gradientUnits="userSpaceOnUse" x1="324.28" x2="199.75" y1="281.25" y2="156.71"><stop offset="0" stop-color="#e0dcff"/><stop offset=".57" stop-color="#fff"/><stop offset="1" stop-color="#fff"/></linearGradient><g id="Layer_14" data-name="Layer 14"><path d="m496.53 129.86c-13.44-49.47-64.89-100.93-114.37-114.37-30.34-7.56-70.98-15.35-126.16-15.49-55.16.14-95.8 7.93-126.14 15.49-49.47 13.44-100.93 64.89-114.37 114.37-7.56 30.33-15.35 70.98-15.49 126.14.14 55.17 7.93 95.81 15.49 126.15 13.44 49.48 64.9 100.93 114.37 114.37 30.34 7.56 71 15.35 126.15 15.48 55.16-.13 95.81-7.92 126.15-15.48 49.48-13.44 100.93-64.89 114.37-114.37 7.56-30.34 15.35-71 15.48-126.15-.13-55.16-7.92-95.8-15.48-126.14z" fill="#f2eeff"/><path d="m426.06 327.61c-.8-44.38-6-89.26-14.64-134.55-7-31.48-32.19-59.51-72.45-61.55-29.72-1.23-35.46 15.7-69.14 15.38q-13.81-.09-27.65 0c-33.68.32-39.44-16.61-69.14-15.38-40.26 2.05-66.24 30-72.48 61.55-8.56 45.3-13.84 90.16-14.63 134.54-.2 30.9 30.31 51.46 50.44 52.87 38.89 2.94 69.78-65.64 93.32-65.64q26.31.15 52.63 0c23.54 0 54.41 68.58 93.32 65.65 20.12-1.42 51.42-22.11 50.42-52.87z" fill="url(#linear-gradient)"/><path d="m212.89 241h-18.14v18.14a13.86 13.86 0 0 1 -27.71 0v-18.14h-18.14a13.86 13.86 0 0 1 0-27.72h18.1v-18.12a13.86 13.86 0 0 1 27.71 0v18.14h18.14a13.86 13.86 0 1 1 0 27.72zm112 32a19.67 19.67 0 1 1 19.11-20.16 19.66 19.66 0 0 1 -19.11 20.16zm32.72-52.39a19.66 19.66 0 1 1 -1-39.31 19.66 19.66 0 1 1 1 39.31z" fill="url(#linear-gradient-2)"/></g></svg>