<svg id="Layer_1" enable-background="new 0 0 512 512" height="512" viewBox="0 0 512 512" width="512" xmlns="http://www.w3.org/2000/svg"><g clip-rule="evenodd" fill-rule="evenodd"><path d="m126.159-.011h259.682c67.096 0 121.947 54.878 121.947 121.975v268.101c0 67.068-54.851 121.947-121.947 121.947h-259.682c-67.068 0-121.947-54.879-121.947-121.947v-268.101c.001-67.097 54.879-121.975 121.947-121.975z" fill="#f34235"/><path d="m165.022 180.669c-20.806 0-39.656 8.447-53.263 22.053-13.635 13.635-22.082 32.485-22.082 53.292 0 20.778 8.447 39.628 22.082 53.263 13.606 13.635 32.457 22.054 53.263 22.054 12.983 0 25.2-3.317 35.915-9.128 10.29-5.584 19.162-13.521 25.852-23.102h58.45c6.69 9.581 15.534 17.518 25.852 23.102 10.687 5.811 22.932 9.128 35.915 9.128 20.806 0 39.628-8.419 53.263-22.054 13.634-13.635 22.053-32.485 22.053-53.263 0-20.806-8.419-39.657-22.053-53.292-13.635-13.606-32.457-22.053-53.263-22.053zm199.134 85.89c-1.701 0-3.373.624-4.677 1.928-1.276 1.275-1.928 2.976-1.928 4.649 0 1.701.652 3.401 1.928 4.677 1.304 1.304 2.976 1.928 4.677 1.928 1.673 0 3.374-.624 4.677-1.928 1.276-1.275 1.928-2.976 1.928-4.677 0-1.673-.652-3.374-1.928-4.649-1.304-1.305-3.005-1.928-4.677-1.928zm-38.977-32.372c-1.275 1.275-1.927 2.977-1.927 4.677 0 1.672.652 3.373 1.927 4.649 1.304 1.304 2.977 1.927 4.677 1.927 1.701 0 3.373-.624 4.677-1.927 1.276-1.276 1.927-2.977 1.927-4.649 0-1.701-.652-3.402-1.927-4.677-1.304-1.275-2.976-1.928-4.677-1.928-1.7.001-3.373.653-4.677 1.928zm-164.891-13.748c0-2.608 2.126-4.706 4.734-4.706 2.58 0 4.706 2.098 4.706 4.706v30.841h30.841c2.608 0 4.706 2.126 4.706 4.734 0 2.58-2.098 4.706-4.706 4.706h-30.841v30.841c0 2.608-2.126 4.706-4.706 4.706-2.608 0-4.734-2.098-4.734-4.706v-30.841h-30.841c-2.608 0-4.706-2.126-4.706-4.706 0-2.608 2.098-4.734 4.706-4.734h30.841zm87.789 42.86h15.874c2.608 0 4.706 2.126 4.706 4.706 0 2.608-2.098 4.734-4.706 4.734h-15.874c-2.608 0-4.734-2.126-4.734-4.734 0-2.58 2.126-4.706 4.734-4.706zm81.78-8.419c-4.11 0-8.192-1.559-11.339-4.706-3.118-3.118-4.677-7.229-4.677-11.31 0-4.11 1.559-8.221 4.677-11.338 3.146-3.146 7.229-4.706 11.339-4.706s8.192 1.56 11.339 4.706c3.118 3.118 4.677 7.228 4.677 11.338 0 4.082-1.559 8.192-4.677 11.31-3.147 3.147-7.229 4.706-11.339 4.706zm22.96 6.945c3.146-3.146 7.229-4.706 11.338-4.706 4.11 0 8.192 1.559 11.339 4.706 3.118 3.118 4.677 7.229 4.677 11.311 0 4.11-1.559 8.22-4.677 11.338-3.146 3.146-7.229 4.706-11.339 4.706s-8.192-1.559-11.338-4.706c-3.118-3.118-4.677-7.228-4.677-11.338 0-4.083 1.559-8.193 4.677-11.311z" fill="#fff"/></g></svg>