<svg id="Flat_Flaticon" height="512" viewBox="0 0 64 64" width="512" xmlns="http://www.w3.org/2000/svg" xmlns:xlink="http://www.w3.org/1999/xlink" data-name="Flat Flaticon"><linearGradient id="linear-gradient" gradientUnits="userSpaceOnUse" x1="4.018" x2="59.982" y1="32.002" y2="32.002"><stop offset="0" stop-color="#00c0ff"/><stop offset="1" stop-color="#5558ff"/></linearGradient><path d="m58.99 24.69-3.21 1.36c-.00647 1.20154.009 12.75335-.00012 14.28009 1.60913.827 2.1325 3.7901 1.1701 5.43988l1.87002 6.56993a1.01086 1.01086 0 0 1 -1.56 1.0801 4.24 4.24 0 0 0 -2.61-.85 4.3 4.3 0 0 0 -2.45.84.98884.98884 0 0 1 -1.14.04.97647.97647 0 0 1 -.43-1.05l1.4701-6.6c-1.1128-1.833-.30628-5.21894 1.67993-5.72.00781-1.51367-.01086-11.95209 0-13.19-4.45606 1.89051-16.43079 6.9524-21.07 8.91a1.69365 1.69365 0 0 1 -1.28.01l-14.44016-6.09009c-1.282-.55756-10.4187-4.39111-11.97974-5.05994a1.67994 1.67994 0 0 1 .00987-3.06997l26.41-11.07a1.626 1.626 0 0 1 1.28 0l26.28 11.11a1.67561 1.67561 0 0 1 0 3.06zm-28.34 12.96c-1.20434-.50817-14.918-6.30426-15.66-6.61v9.74a3.22977 3.22977 0 0 0 1.43 2.64 27.86778 27.86778 0 0 0 14.87 4.81 28.55143 28.55143 0 0 0 16.39-4.78009 3.264 3.264 0 0 0 1.47-2.67991v-9.74c-.6936.301-14.48321 6.12237-15.66 6.62a3.72691 3.72691 0 0 1 -2.84 0z" fill="url(#linear-gradient)"/></svg>