<svg id="Layer_1" enable-background="new 0 0 512 512" height="512" viewBox="0 0 512 512" width="512" xmlns="http://www.w3.org/2000/svg"><g clip-rule="evenodd" fill-rule="evenodd"><path d="m433.61 0h-355.222c-43.218 0-78.389 35.171-78.389 78.394v355.213c0 43.227 35.171 78.393 78.389 78.393h355.222c43.2 0 78.389-35.166 78.389-78.393v-355.213c0-43.223-35.19-78.394-78.389-78.394z" fill="#ff405c"/><path d="m22.989 489.016c14.195 14.196 33.793 22.989 55.406 22.989h355.215c43.227 0 78.393-35.171 78.393-78.398v-355.213c0-21.611-8.791-41.209-22.986-55.405z" fill="#e82968"/><path d="m256.001 129.296 116.008 93.564h-12.887c-6.623 0-12 5.373-12 11.995v151.273h-40.869v-103.007c0-6.627-5.373-12-12-12h-76.503c-6.627 0-12 5.373-12 12v103.008h-40.869v-151.274c0-6.623-5.382-11.995-12.001-11.995h-12.892zm-149.999 117.565h34.878v151.268c0 6.628 5.368 11.996 12 11.996h64.87c6.632 0 12.001-5.368 12.001-11.996v-103.013h52.501v103.012c0 6.628 5.368 11.996 12 11.996h64.87c6.627 0 12-5.368 12-11.996v-151.267h34.878c5.09 0 9.618-3.208 11.321-8.01 1.689-4.797.17-10.142-3.793-13.335l-149.998-120.98c-4.392-3.547-10.67-3.547-15.057 0l-150.005 120.979c-3.957 3.193-5.477 8.538-3.788 13.335 1.699 4.803 6.232 8.011 11.322 8.011z" fill="#fff"/></g></svg>