<svg id="Layer_2" height="512" viewBox="0 0 512 512" width="512" xmlns="http://www.w3.org/2000/svg" data-name="Layer 2"><g id="Icon"><g id="_01" data-name="01"><rect id="Background" fill="#0d47a1" height="512" rx="150" width="512"/><g><path d="m431 238.48c0 14.23-11.54 25.77-25.77 25.77h-4.23v112.87c0 27.61-22.39 50-50 50h-190c-27.61 0-50-22.39-50-50v-112.87s-4.23 0-4.23 0c-14.23 0-25.77-11.54-25.77-25.77 0-7.24 3.04-14.14 8.38-19.02l132.88-121.49c19.1-17.46 48.37-17.46 67.48 0l132.88 121.49c5.34 4.88 8.38 11.79 8.38 19.02z" fill="#64b5f6"/><path d="m256 264.26c27.6 0 50 22.4 50 50v112.87h-100v-112.87c0-27.6 22.4-50 50-50z" fill="#1e88e5"/></g></g></g></svg>