<svg id="Layer_2" height="512" viewBox="0 0 512 512" width="512" xmlns="http://www.w3.org/2000/svg" xmlns:xlink="http://www.w3.org/1999/xlink" data-name="Layer 2"><linearGradient id="linear-gradient" gradientUnits="userSpaceOnUse" x1="43.93" x2="468.07" y1="43.93" y2="468.07"><stop offset="0" stop-color="#64b5f6"/><stop offset="1" stop-color="#1976d2"/></linearGradient><linearGradient id="linear-gradient-2" gradientUnits="userSpaceOnUse" x1="119.66" x2="468.07" y1="119.66" y2="468.07"><stop offset="0" stop-opacity=".35"/><stop offset="1" stop-opacity="0"/></linearGradient><g id="Icon"><g id="ID"><rect fill="url(#linear-gradient)" height="512" rx="150" width="512"/><path d="m512 203.63v158.37c0 82.84-67.16 150-150 150h-158.37l-122.17-122.18 35.88-267.85h313z" fill="url(#linear-gradient-2)"/><path id="ID-2" d="m404.87 111.47h-297.74c-19.96 0-36.13 16.18-36.13 36.13v216.8c0 19.96 16.18 36.13 36.13 36.13h297.74c19.96 0 36.13-16.18 36.13-36.13v-216.8c0-19.96-16.18-36.13-36.13-36.13zm-219.08 62.53c22.11 0 40.04 17.93 40.04 40.04s-17.93 40.04-40.04 40.04-40.04-17.93-40.04-40.04 17.93-40.04 40.04-40.04zm52.29 164.01h-104.59c-14.69 0-25.13-14.3-20.65-28.3l11.97-37.35c3.3-10.29 14.84-15.43 24.67-10.94 8.79 4.02 20.9 7.55 36.3 7.55s27.51-3.53 36.3-7.55c9.83-4.5 21.37.65 24.67 10.94l11.97 37.35c4.48 13.99-5.95 28.3-20.65 28.3zm151.63-48.07h-80.94c-5.59 0-10.12-4.53-10.12-10.12s4.53-10.12 10.12-10.12h80.94c5.59 0 10.12 4.53 10.12 10.12s-4.53 10.12-10.12 10.12zm0-36.13h-80.94c-5.59 0-10.12-4.53-10.12-10.12s4.53-10.12 10.12-10.12h80.94c5.59 0 10.12 4.53 10.12 10.12s-4.53 10.12-10.12 10.12zm0-36.13h-80.94c-5.59 0-10.12-4.53-10.12-10.12s4.53-10.12 10.12-10.12h80.94c5.59 0 10.12 4.53 10.12 10.12s-4.53 10.12-10.12 10.12z" fill="#fff" data-name="ID"/></g></g></svg>