<svg id="svg5" height="512" viewBox="0 0 180.62201 180.62201" width="512" xmlns="http://www.w3.org/2000/svg" xmlns:xlink="http://www.w3.org/1999/xlink" xmlns:svg="http://www.w3.org/2000/svg"><linearGradient id="linearGradient21800" gradientUnits="userSpaceOnUse" x1="-1560.482" x2="-1412.102" y1="-704.51" y2="-859.098"><stop id="stop21794" offset="0" stop-color="#ff58ae"/><stop id="stop21796" offset="1" stop-color="#6a279b"/></linearGradient><g id="layer1" transform="translate(1575.225 870.909)"><path id="rect3352" d="m-1519.9951-840.59825c-13.8049 0-24.9189 11.11396-24.9189 24.91891v70.16218c0 13.80494 11.114 24.91891 24.9189 24.91891h70.1623c13.8049 0 24.9188-11.11397 24.9188-24.91891v-70.16218c0-13.80495-11.1139-24.91891-24.9188-24.91891zm35.0805 28.34505c2.3059 0 4.1836.64372 5.6318 1.93083 1.4479 1.28712 2.1717 2.8964 2.1717 4.82704 0 2.09155-.7238 3.83437-2.1717 5.22874-1.4482 1.34073-3.3259 2.01115-5.6318 2.01115-2.3062 0-4.1826-.67042-5.6305-2.01115-1.4479-1.34075-2.1717-3.00344-2.1717-4.98773 0-1.98428.7238-3.647 2.1717-4.98773s3.3243-2.01115 5.6305-2.01115zm-2.3686 20.03124h4.7382a3.9061109 3.9061109 45 0 1 3.9061 3.90611v35.46644a3.9061109 3.9061109 135 0 1 -3.9061 3.90611h-4.7382a3.9061109 3.9061109 45 0 1 -3.9061-3.90611v-35.46644a3.9061109 3.9061109 135 0 1 3.9061-3.90611z" fill="url(#linearGradient21800)" font-variation-settings="normal" vector-effect="none"/></g></svg>