<svg id="Layer_2" height="512" viewBox="0 0 512 512" width="512" xmlns="http://www.w3.org/2000/svg" xmlns:xlink="http://www.w3.org/1999/xlink" data-name="Layer 2"><linearGradient id="linear-gradient" gradientUnits="userSpaceOnUse" x1="43.93" x2="468.07" y1="43.93" y2="468.07"><stop offset="0" stop-color="#64b5f6"/><stop offset="1" stop-color="#1976d2"/></linearGradient><linearGradient id="linear-gradient-2" gradientUnits="userSpaceOnUse" x1="192.07" x2="458.68" y1="210.83" y2="477.44"><stop offset="0" stop-opacity=".35"/><stop offset="1" stop-opacity="0"/></linearGradient><g id="Icon"><g id="Inverted_Exclamation_Mark" data-name="Inverted Exclamation Mark"><rect id="Background" fill="url(#linear-gradient)" height="512" rx="150" width="512"/><path d="m512 332.96v29.04c0 82.84-67.16 150-150 150h-66.56l-99.32-99.32 29.39-34.55 46.15-162.96-41.96-41.97 61.27-61.27z" fill="url(#linear-gradient-2)"/><path d="m196.12 412.68c5.19-13.12 9.74-27.17 13.64-42.14s7.14-30.39 9.74-46.25 4.54-31.96 5.84-48.3 1.95-32.5 1.95-48.5c0-5.33-.1-10.53-.31-15.59s-.45-10.12-.72-15.18c6.56 1.51 13.16 2.67 19.79 3.49s13.23 1.23 19.79 1.23c7.66 0 15.65-.75 23.99-2.26-.41 5.33-.65 10.63-.72 15.89s-.1 10.49-.1 15.69c0 17.5.72 35 2.15 52.5 1.44 17.5 3.35 34.08 5.74 49.73s5.23 29.94 8.51 42.86 6.77 23.48 10.46 31.68c-5.2-.69-11.25-1.13-18.15-1.33-6.91-.21-14.46-.31-22.66-.31-6.97 0-14.19.13-21.64.41-7.45.27-14.66.68-21.64 1.23-6.97.54-13.54 1.23-19.69 2.05s-11.48 1.85-16 3.08zm107.46-270.09c0 6.02-1.13 11.66-3.38 16.92-2.26 5.26-5.33 9.84-9.23 13.74s-8.48 6.97-13.74 9.23-10.9 3.38-16.92 3.38-11.62-1.13-16.82-3.38c-5.2-2.26-9.78-5.33-13.74-9.23-3.97-3.9-7.08-8.48-9.33-13.74-2.26-5.26-3.38-10.9-3.38-16.92s1.13-11.65 3.38-16.92c2.26-5.26 5.36-9.84 9.33-13.74 3.96-3.9 8.54-6.97 13.74-9.23 5.19-2.26 10.8-3.38 16.82-3.38s11.65 1.13 16.92 3.38c5.26 2.26 9.84 5.33 13.74 9.23s6.97 8.48 9.23 13.74 3.38 10.9 3.38 16.92z" fill="#fff"/></g></g></svg>