<svg id="glipy_copy_4" viewBox="0 0 64 64" xmlns="http://www.w3.org/2000/svg" xmlns:xlink="http://www.w3.org/1999/xlink" data-name="glipy copy 4"><linearGradient id="linear-gradient" gradientUnits="userSpaceOnUse" x1="2" x2="62" y1="32" y2="32"><stop offset="0" stop-color="#00c0ff"/><stop offset="1" stop-color="#5558ff"/></linearGradient><path d="m32 2a30 30 0 1 0 30 30 30.03661 30.03661 0 0 0 -30-30zm-.84 46.6a1.39557 1.39557 0 0 1 -1.39 1.4h-15.69a1.39559 1.39559 0 0 1 -1.39-1.4v-7.47h4.42v.66a.72141.72141 0 0 0 .72.71.71274.71274 0 0 0 .71-.71v-.66h6.76v.66a.715.715 0 0 0 1.43 0v-.66h4.43zm.69-9.61a.70881.70881 0 0 1 -.69.71h-18.47a.70881.70881 0 0 1 -.69-.71v-2.67a1.40207 1.40207 0 0 1 1.4-1.39h4.22v-2.02a1.402 1.402 0 0 1 1.39-1.4h5.82a1.4041 1.4041 0 0 1 1.4 1.4v2.02h4.22a1.40206 1.40206 0 0 1 1.4 1.39zm8.72-28.28a.715.715 0 0 1 1.43 0 11.73779 11.73779 0 0 1 3.44.7 10.16285 10.16285 0 0 0 3.7.61.717.717 0 0 1 .72.72v5.24a.71492.71492 0 0 1 -.72.71 11.32635 11.32635 0 0 1 -4.15-.69 9.67791 9.67791 0 0 0 -2.99-.61v6.9a.715.715 0 0 1 -1.43 0zm6.43 34.29h-12.86a.715.715 0 0 1 0-1.43h12.86a3.57014 3.57014 0 0 0 0-7.14h-7.86a5 5 0 0 1 0-10h2.15a.715.715 0 0 1 0 1.43h-2.15a3.57 3.57 0 0 0 0 7.14h7.86a5 5 0 0 1 0 10zm-27.99-12.06 5.79-.03v2.02h-5.76z" fill="url(#linear-gradient)"/></svg>