<svg id="Layer_1" enable-background="new 0 0 512 512" viewBox="0 0 512 512" xmlns="http://www.w3.org/2000/svg" xmlns:xlink="http://www.w3.org/1999/xlink"><linearGradient id="lg1"><stop offset="0" stop-color="#ff7145"/><stop offset="1" stop-color="#e9291b"/></linearGradient><linearGradient id="SVGID_1_" gradientTransform="matrix(1 0 0 -1 0 512)" gradientUnits="userSpaceOnUse" x1="11.13" x2="502.54" xlink:href="#lg1" y1="500.87" y2="9.46"/><linearGradient id="SVGID_00000141423252976979787840000015827270641754975377_" gradientTransform="matrix(1 0 0 -1 0 512)" gradientUnits="userSpaceOnUse" x1="-4.318" x2="487.092" xlink:href="#lg1" y1="485.432" y2="-5.988"/><g id="Layer_2_00000013156742524706489260000010471163299202008968_"><g id="Layer_2_copy_7"><g id="_22"><path d="m450 0h-388c-34.2 0-62 27.8-62 62v388c0 34.2 27.8 62 62 62h388c34.2 0 62-27.8 62-62v-388c0-34.2-27.8-62-62-62zm17.4 348.4c-5.8 36.5-31 58.2-67.5 58.2-3.8 0-7.6-.2-11.4-.7-16.4-1.9-31.4-9.3-46.1-22.6-5-4.5-9.6-9.2-14.1-13.7s-8.6-8.7-13-12.7c-8.6-7.8-17.9-16-27.4-22.6-6.3-4.4-14.2-6.6-23.5-6.6-.8 0-1.7 0-2.5 0-2.8.1-5.6.2-8.4.2-6.6.1-12.7.2-18.2 1.3-9 1.7-17.8 7-28.6 17.1-5.5 5.1-11.1 10.7-16.4 16-4.1 4.1-8.4 8.4-12.8 12.5-9.8 9.4-23.4 21-41.7 26.6-7.5 2.3-15.3 3.5-23.2 3.5-9 0-17.9-1.6-26.4-4.6-15.7-5.5-35.6-19-41.4-52.2-3.6-20.5-2.2-41.8 4.6-69 12.3-49.2 33.6-96.1 63.4-139.3 15.3-22.2 38.3-34 66.4-34.3 9.1-.1 18.8-.1 30.5-.1h23.3 23.1 46.3 29.6c28.6 0 52 12.2 67.6 35.2 33.5 49.3 55.7 101.4 66.2 154.9 3.7 19.2 4.3 36.4 1.6 52.9z" fill="url(#SVGID_1_)"/><path d="m385.5 150.3c-12.8-18.8-31-27.7-53.5-27.7-25.3 0-50.5 0-75.8 0-25.6 0-51.1-.2-76.7.1-21.9.2-39.8 8.5-52.6 26.9-28.2 40.9-48.8 85.4-60.9 133.6-5.1 20.3-8 41-4.4 61.9 3.2 18.2 11.8 32.6 30.2 39 12.6 4.5 26.3 4.8 39 .9 13.8-4.2 24.7-12.9 34.9-22.6 9.9-9.5 19.4-19.4 29.4-28.7 10.7-10 22.5-18.6 37.1-21.4 9.4-1.8 19.3-1.4 29-1.8 13.1-.5 25.8 2.2 36.5 9.6 10.3 7.1 19.8 15.6 29.1 24s17.8 18 27.1 26.4c10.4 9.5 22.3 16.6 36.6 18.3 27.8 3.2 54.3-6.9 60.1-43.3 2.5-15.7 1.5-31.3-1.5-46.7-10.6-53.9-32.8-103.1-63.6-148.5zm-179.6 82h-11.9v11.9c0 9.1-7.4 16.5-16.5 16.5s-16.5-7.4-16.5-16.5v-11.9h-11.9c-9.1 0-16.5-7.4-16.5-16.5s7.4-16.5 16.5-16.5h11.9v-11.9c0-9.1 7.4-16.5 16.5-16.5s16.5 7.4 16.5 16.5v11.9h11.9c9.1 0 16.5 7.4 16.5 16.5-.1 9.1-7.5 16.5-16.5 16.5zm129-62c9.3 0 16.9 7.5 16.8 16.9 0 9.3-7.5 16.8-16.9 16.8-9.3 0-16.9-7.5-16.8-16.9 0-9.3 7.5-16.9 16.9-16.8-.1-.1 0-.1 0 0zm-29.1 62.7c-9.3 0-16.9-7.5-16.9-16.8s7.5-16.9 16.8-16.9 16.9 7.5 16.9 16.8c0 9.4-7.5 16.9-16.8 16.9zm29.1 29.1c-9.3 0-16.8-7.5-16.8-16.8s7.5-16.8 16.8-16.8 16.8 7.5 16.8 16.8c0 9.3-7.5 16.8-16.8 16.8zm29.1-29.1c-9.3 0-16.9-7.5-16.9-16.9 0-9.3 7.5-16.9 16.9-16.8 9.3 0 16.8 7.5 16.8 16.9.1 9.3-7.5 16.8-16.8 16.8z" fill="url(#SVGID_00000141423252976979787840000015827270641754975377_)"/></g></g></g></svg>