<svg height="512" viewBox="0 0 64 64" width="512" xmlns="http://www.w3.org/2000/svg" xmlns:xlink="http://www.w3.org/1999/xlink"><linearGradient id="linear-gradient" gradientUnits="userSpaceOnUse" x1="3.25" x2="60.75" y1="32" y2="32"><stop offset="0" stop-color="#5bb4f6"/><stop offset=".61" stop-color="#2191e5"/><stop offset="1" stop-color="#007edb"/></linearGradient><g id="Layer_3" data-name="Layer 3"><rect fill="url(#linear-gradient)" height="57.5" rx="12.75" width="57.5" x="3.25" y="3.25"/><g fill="#fff"><path d="m42.12 27.78h-9.37v-1.87a3.33 3.33 0 0 0 -3.33-3.33h-1.67a1.83 1.83 0 1 1 0-3.65h7.67a3.35 3.35 0 0 0 3.33-3.36.75.75 0 0 0 -.75-.74.76.76 0 0 0 -.75.77 1.83 1.83 0 0 1 -1.83 1.83h-7.67a3.33 3.33 0 1 0 0 6.65h1.67a1.83 1.83 0 0 1 1.83 1.83v1.87h-9.36a10.7 10.7 0 1 0 6.62 19.14h7a10.7 10.7 0 1 0 6.63-19.14zm-.07 19.9a9 9 0 0 1 -5.82-2.09.78.78 0 0 0 -.48-.17h-7.5a.78.78 0 0 0 -.48.17 9 9 0 0 1 -5.77 2.09 9.2 9.2 0 0 1 0-18.4h20.1a9.2 9.2 0 1 1 0 18.4z"/><path d="m23.14 37.78h-2.2v-2.21a.75.75 0 0 0 -1.5 0v2.21h-2.21a.75.75 0 0 0 0 1.5h2.21v2.21a.75.75 0 0 0 1.5 0v-2.21h2.2a.75.75 0 0 0 0-1.5z"/><circle cx="38" cy="38.48" r="1.5"/><circle cx="41.89" cy="34.63" r="1.5"/><circle cx="45.8" cy="38.54" r="1.5"/><circle cx="41.89" cy="42.43" r="1.5"/></g></g></svg>