<svg id="Layer_1" enable-background="new 0 0 24 24" height="512" viewBox="0 0 24 24" width="512" xmlns="http://www.w3.org/2000/svg" xmlns:xlink="http://www.w3.org/1999/xlink"><linearGradient id="SVGID_1_" gradientTransform="matrix(1 0 0 -1 0 26)" gradientUnits="userSpaceOnUse" x1="0" x2="24" y1="14" y2="14"><stop offset=".00000010656" stop-color="#4dbfff"/><stop offset="1" stop-color="#008ddb"/></linearGradient><path d="m24 12c0-2.3-.1-4.4-.5-5.6-.4-1.4-.9-2.7-2.1-3.9-1.5-1.4-2.8-1.8-4.8-2.2-1.4-.2-3.1-.3-4.1-.3-.3 0-.6 0-.9 0-1.1 0-2.7.1-4.2.3-2 .4-3.4.9-4.8 2.2-1.3 1.2-1.7 2.5-2.1 3.9-.4 1.2-.5 3.3-.5 5.6 0 2.3.1 4.4.5 5.6.4 1.4.9 2.7 2.1 3.9 1.5 1.4 2.8 1.8 4.8 2.2 1.6.3 3.6.3 4.6.3 1 0 3 0 4.7-.3 1.9-.4 3.3-.8 4.8-2.2 1.2-1.1 1.7-2.4 2.1-3.9.3-1.2.4-3.3.4-5.6z" fill="url(#SVGID_1_)"/><path d="m12.7 12v5.9h2.9v1.5h-7.3v-1.5h2.9v-5.9h-5.8c-.4 0-.7-.3-.6-.7l1.2-5.9c0-.5.4-.7.9-.7h10.3c.4 0 .8.3.9.7l1.2 5.9c.1.4-.2.7-.6.7z" fill="#fff"/></svg>