<svg id="Layer_1" enable-background="new 0 0 68 68" viewBox="0 0 68 68" xmlns="http://www.w3.org/2000/svg"><g><g fill="#423751"><path d="m7.7660661 51.5346718c.0291743.0154037.0582652.0291023.0891118.0410881-.0120378-.0051422-.0223198-.010273-.0342741-.0137024-.0188923-.0085564-.0377012-.0188294-.0548377-.0273857z"/><g><path d="m40.0324326 33.7245827-30.5902977 17.6611442c-.5752134.3321304-1.1332903.3800621-1.586957.190033-.0308466-.0119858-.0599375-.0256844-.0891118-.0410881.0171366.0085564.0359454.0188293.0548377.0273857l-1.5185766-.6368637c-.5547323-.2311287-.955317-.8166313-1.0546274-1.6726418l-2.9189506-25.1323642c-.1814835-1.5579281.7087975-3.4188976 1.9876251-4.1567745l30.5902991-17.6611331c.5752144-.3338449 1.1333733-.3817759 1.5870399-.1900311l1.5065384.6300199c.0154648.0068443.0308456.0119853.0462265.0188296.5547333.2311177.9553185.8183477 1.0546303 1.6743548l2.9189491 25.1323662c.1814843 1.5579281-.7087135 3.4188862-1.987625 4.1567631z"/><path d="m7.7660661 51.5346718c.0291743.0154037.0582652.0291023.0891118.0410881-.0120378-.0051422-.0223198-.010273-.0342741-.0137024-.0188923-.0085564-.0377012-.0188294-.0548377-.0273857z"/></g></g><path d="m36.4937134 2.1114445c-.4544182-.1902922-1.011158-.1423509-1.5874596.1903551l-30.5903811 17.6614038c-1.2789114.7383804-2.1685233 2.5990047-1.9875414 4.1569958l2.9189507 25.1316662c.0993938.8559532.5011487 1.4421082 1.0552125 1.6741142l1.5525994.6502075c-.5539804-.2320061-.9558187-.818161-1.0552125-1.6741142l-2.9189505-25.1316662c-.1809821-1.557991.7086301-3.4186153 1.9875412-4.1569939l30.5904665-17.6614053c.5762138-.332706 1.1330376-.3806474 1.5873756-.1903551z" fill="#312944"/><path d="m36.4589119 2.9520082c1.2788582-.7383485 2.4617271-.0742552 2.6426849 1.4837399l2.9189415 25.1316605c.180954 1.5579948-.7086754 3.4186535-1.9875336 4.1569996l-30.5904502 17.6614065c-1.2789164.7383804-2.4617281.0742493-2.642683-1.4837456l-2.9189423-25.1316586c-.1809549-1.5579948.708617-3.4186134 1.9875333-4.1569977z" fill="#423751"/><path d="m40.0896759 29.6857796-30.8950939 17.8264618c-.5685844.3280716-1.2872443-.0330925-1.3632784-.6851196l-2.5904584-22.2143193c-.1163635-1.008379.5085049-2.3488884 1.3131852-2.8128376l30.2785158-17.4527698c.3885574-.2239666.8794212.0230932.9310226.4685969l2.7767944 23.9740543c.0419084.3618032-.1352156.7139055-.4506873.8959333z" fill="#ffd86a"/><path d="m40.0889435 29.6855011-30.8950005 17.8272018c-.5683594.326992-1.2874384-.0342407-1.3627572-.684803l-1.6059327-13.7680244c6.2027073 2.3934021 13.5420485-1.3490696 16.4970284-8.4727573 1.7308216-4.1687508 1.5784302-8.5840416-.0633659-12.0697002l14.1737709-8.1697264c.3886299-.2242732.8800011.0222573.9313278.4673767l2.7769241 23.9750404c.0410433.3612451-.1352568.7139196-.4519949.8953924z" fill="#fccb4f"/><g><g><path d="m65.694397 44.6436462-.005188 1.8130264c-.0016708.4810753-.316658.9604378-.9484634 1.3285255l-30.391594 17.6611367c-1.270298.7378769-3.3350811.7378769-4.6139088 0l-20.6280994-11.9104881c-.6453485-.3715019-.9655151-.8594246-.9655151-1.3473549l.0050993-1.813015c0 .0068436.0017548.0119858.0017548.0188293-.0068541-.4862175.3081293-.9741364.9467077-1.3456421l2.5406857-1.4757538 1.5184927.8765488 23.7867135-13.8245124.0051842-1.7616692 2.5405998-1.4774685c1.2703018-.7361641 3.3384285-.7361641 4.6173401.0017128l20.6280174 11.9087696c.6437607.3715134.9638443.8594361.9621735 1.3473549z" fill="#edeef2"/></g></g><g><path d="m38.4642563 33.7398987-1.5182419-.8765678c-1.1096306.3398819-.8560066 1.005661-.0051842 1.8142395l1.5182457.8765678z" fill="#423751"/><path d="m64.7466812 45.9702034-30.3926811 17.6623154c-1.2694626.7377434-3.335165.7377739-4.6140766-.0006065l-20.6282654-11.9097214c-.6440115-.3718071-.965683-.8599358-.964262-1.3471565l-.0051832 1.8142395c-.0013371.4872208.3203344.9753494.9643459 1.3471565l20.6281815 11.9097214c1.2789097.7383804 3.3446121.7383499 4.6140785.0006027l30.392765-17.6623116c.630806-.366581.9467926-.8465919.9481277-1.3273849l.0050964-1.8142395c-.0013341.480793-.3173207.9608039-.9481267 1.3273849z" fill="#b5b7c6"/></g><g><path d="m64.7316513 43.2969246c1.2789154.7383842 1.2845306 1.9355354.0150452 2.6732788l-30.3927117 17.6623154c-1.2694855.7377434-3.3351669.7377739-4.6140823-.0006104l-20.6282349-11.9097175c-1.2789159-.7383804-1.2867455-1.9355507-.0172606-2.6732941l2.5411425-1.4767532 1.518261.8765678 25.3104305-14.7088127-1.518261-.8765678 2.5411415-1.4767513c1.2694855-.7377434 3.3373795-.7377529 4.6162949.0006294z" fill="#edeef2"/></g><g><path d="m64.7459335 45.9704552-30.3916816 17.662857c-1.2703018.7361641-3.3349991.7361641-4.6138268-.0017128l-20.6280985-11.9087677c-1.2789116-.7395935-1.2874379-1.9362869-.0171366-2.6741676l.9210434-.5341454c3.3932657 2.5714378 8.1543865 4.1687508 13.425684 4.1687508 10.3046036 0 18.6591988-6.1067543 18.6591988-13.6396141 0-2.7409363-1.1059532-5.2918434-3.0079765-7.4284325l.3937263-.229414c1.2703018-.7361641 3.3384285-.7361641 4.6173401.0017128l20.6280174 11.9087696c1.2789078.7395936 1.2840119 1.936287.01371 2.6741639z" fill="#e0e1ec"/></g><g><g><path d="m51.7116203 49.9851418c.5915718.3415451.5946808.8957253.0069504 1.237278l-10.8660774 6.3146744c-.5877304.3415489-1.5444679.3415604-2.1360397.0000153l-6.002903-3.4657745c-.5915718-.3415451-.5946808-.8957253-.0069504-1.237278l10.8660774-6.3146744c.5877266-.3415489 1.5444717-.3415604 2.1360397-.0000153z" fill="#b5b7c6"/></g><g><path d="m52.0119896 50.9815254c-.0718918.0873146-.169529.169487-.2927475.2413902l-10.8661919 6.3139076c-.5889206.3424034-1.544239.3424034-2.1365891 0l-6.0023308-3.4651146c-.1284027-.073616-.2277107-.1575012-.3012733-.2465286.071888-.0873146.169445-.1694908.2944183-.2413902l10.8661919-6.3156242c.5871658-.3406868 1.544239-.3406868 2.1348343 0l6.0040855 3.4668312c.1266442.0736122.2277108.1575012.2996026.2465286z" fill="#423751"/><path d="m52.0119896 50.9815254c-.0718918.0873146-.169529.169487-.2927475.2413902l-10.8661919 6.3139076c-.5889206.3424034-1.544239.3424034-2.1365891 0l-3.0730972-1.7736435c.0702171.0017128.1404381.0017128.2123299.0017128 4.302269 0 7.7896614-2.6638908 7.7896614-5.9492493 0-.7977943-.2054749-1.5579262-.57864-2.253006l.506752-.2944717c.5871658-.3406868 1.544239-.3406868 2.1348343 0l6.0040855 3.4668312c.1266442.0736123.2277108.1575013.2996026.2465287z" fill="#382e49"/><path d="m51.9469528 50.1614761c-.0377007-.0376701-.0822563-.0753288-.1301575-.1095734.049656.0342446.0924569.0719033.1301575.1095734z" fill="#423751"/></g><g><path d="m52.0119896 50.9815254c-.0718918-.0890274-.1729584-.1729164-.2996025-.2465286l-6.0040855-3.4668312c-.5905952-.3406868-1.5476685-.3406868-2.1348343 0l-10.8661919 6.3156242c-.1249733.0718994-.2225304.1540756-.2944183.2413902-.2654152-.3252792-.1677742-.7224655.2944183-.9912529l10.8661919-6.3139114c.5871658-.3423996 1.544239-.3423996 2.1348343 0l6.0040855 3.4651146c.4656219.270504.5666885.6711083.2996025.9963951z" fill="#b5b7c6"/></g></g><g><path d="m48.7316399 39.7468567c.6110992.3528175.6143112.9252892.0071793 1.2781143l-24.3111764 14.1281128c-.6071301.3528252-1.5954533.3528366-2.2065506.0000191l-6.8887262-3.9772072c-.6110983-.3528175-.6143112-.925293-.0071821-1.2781181l24.3111763-14.1281128c.607132-.3528252 1.5954552-.3528328 2.2065544-.0000153z" fill="#b5b7c6"/></g><g><g><path d="m49.6117706 39.6505547c.6110992.3528175.6143112.925293.0071831 1.2781181l-24.3111782 14.1281128c-.6071301.3528252-1.5954514.3528328-2.2065506.0000153l-6.8887253-3.9772072c-.6110983-.3528175-.6143122-.9252892-.0071812-1.2781143l24.3111763-14.1281128c.607132-.3528252 1.5954552-.3528366 2.2065506-.0000191z" fill="#423751"/></g><g><path d="m49.6185989 40.9285851-24.3106022 14.1275329c-.6078148.3526726-1.5956497.3526726-2.20681 0l-6.889185-3.977005c-.6111584-.3526764-.6145859-.9244919-.006855-1.2771683l1.8678341-1.0854111c2.4225674 1.1744385 5.7695217 1.484314 9.229496.6317329 6.0588398-1.4928818 10.1624928-5.9817772 9.1661282-10.0289803-.092453-.3732185-.2242813-.7293205-.3920555-1.0665817l4.4391975-2.5800056c.6078148-.3526764 1.5956535-.3526764 2.20681 0l6.8891869 3.977005c.6111565.3543893.6145859.9262048.006855 1.2788812z" fill="#382e49"/></g></g><g><g><g><g><path d="m26.3856544 29.339077-1.0796471 2.538229c-.0660191.155901-.1786327.2868328-.2940369.3534107-.0499535.0288506-.0998802.0454941-.1475849.0477104l-1.2311077.0577049c-.0543709.0022163-.1126137.021637-.1703148.0554771-.0948696.0543709-.1886559.1464691-.2624493.2640877-.7267723 1.1506653-1.5944939 2.2025719-2.5493088 3.0664024-.152029.1375923-.262991.3511925-.2857189.5437088l-.190876 1.6505394c-.02495.213604-.1725368.4466209-.3472958.5470428l-1.986187 1.1467781c-.0976601.056591-.1869774.0621376-.2507744.0238571-.0027885-.0011101-.0050106-.0027733-.0072327-.0044403l-1.3215332-.767292c-.0516071-.0299606-.0870953-.0876617-.0987434-.1697693l-.1009922-.7190285c-.5603304.0299568-1.0796461-.0510406-1.5451078-.2352371-.0760145-.0294037-.1703424-.0138702-.2657537.0410576-.0588121.0338402-.1176243.0826645-.1725636.1448021l-1.2205687 1.3764687c-.048275.054924-.0998545.0976448-.1508923.1270523-.0926476.053257-.1831017.0632439-.2502308.0244102-.0022211-.0011101-.0044155-.0022202-.0066366-.0038834l-1.3226717-.7684057c-.015523-.0094299-.0299616-.0210838-.0427208-.0355034l-1.1112613-1.2566338c-.0976591-.1098518-.0749035-.3473091.0549116-.557579l.999217-1.6211395c.1165142-.1891861.1619978-.4050064.1131821-.5498085-.2130632-.6236-.3290091-1.3531685-.3312302-2.1798286-.0022211-.7878189.0993118-1.6078205.2896194-2.4339256.0160913-.0699024.0210762-.1348171.0160913-.1930714l-1.1701001-.6796342c-.1159458-.0671329-.1364794-.2663059-.0460529-.478796l1.0791044-2.5382309c.0665874-.155899.1786594-.2868328.2946043-.3534088.049386-.0288525.0993128-.0454941.1470184-.0477123l1.2316761-.057703c.0543699-.0027733.1126137-.0221901.1703148-.055479.0943279-.0543709.1880865-.1470222.2618799-.2640839.7273407-1.1506672 1.5944929-2.2031307 2.5498781-3.0664043.1520023-.1375904.2629633-.3511925.2851496-.5437088l.1914186-1.6516533c.0249767-.2124901.1719952-.4455051.3467522-.5459251l1.9861889-1.1467819c.0970898-.056036.1858654-.0621395.2502308-.0244122l1.3298779.7722893c-.0027905-.0016651-.0050125-.0027771-.0077744-.0038834.055479.0288467.0942993.087656.1065178.1730976l.1009636.7195797c.5609264-.0299568 1.0802155.0510445 1.5451355.234129.0760155.0305138.1703148.0144272.2651844-.0405025.0588398-.0338421.1176262-.0826645.1725636-.1442471l1.2205696-1.3764687c.048275-.0549259.0998535-.0976467.1508923-.1270504.0932159-.0532627.1836433-.0638027.2507725-.0244102l1.3281975.7717304c.0160923.0088787.0305309.0205269.0438328.0355091l1.1112881 1.256628c.0970898.1109619.0743351.3484192-.0549393.5575809l-.9991894 1.6216927c-.1170826.1891861-.1625671.4050064-.1131821.5487022.2124939.624155.3284397 1.3542747.3312035 2.1798248.0022202.7883778-.0993137 1.6083775-.2895927 2.4350357-.0160923.0699062-.0216465.1348171-.016634.1925163l1.1667423.6779728.0005684.000555c.1187075.065466.1403521.266306.0493582.4804593z" fill="#423751"/></g></g><g fill="#312944"><path d="m25.0097504 28.0876713c-.0056343-.0032806-.0115128-.0062504-.0176086-.008894l-1.0170422-.4422321c-.0068531-.0029774-.0134373-.0063152-.0198021-.010004l1.3294983.7726097c.0063381.0036907.012949.0070286.0197754.0100021l1.0170689.4422321c.0060959.0026436.0119457.0056133.0176086.0088959z"/><path d="m17.4922886 39.4651413-.2002506-1.4246635c-.0129223-.0929947-.0535564-.1603622-.1133995-.1951408l-1.3294706-.7726097c.0598421.0347824.1004772.1021423.1133718.1951447l.2002506 1.4246597c.0116215.0818672.0474072.1395912.098959.169548l1.3294716.7726097c-.0515519-.0299569-.0873375-.0876771-.0989323-.1695481z"/><path d="m24.9068356 19.3780556c.0928097-.0535851.1836166-.0637264.2507172-.0247402l-1.3294716-.7726116c-.0671005-.0389862-.1579075-.028841-.2507172.0247421-.0510101.0294476-.1026173.0720119-.1511898.1267452l-1.22019 1.3763542c-.0549927.0620594-.1139145.1107979-.1725368.1446495-.0951939.0549564-.1896572.0706959-.2654819.0405617-.716423-.2827129-1.5613079-.3212547-2.4877605-.0884724-.0672932.0168457-.1267815.0097351-.1742706-.0178604l1.3294716.7726116c.0474892.0275917.1070061.0347023.1742973.0178566.9264259-.2327785 1.7713089-.1942387 2.4877605.0884724.0758247.0301342.1702614.0143986.2654552-.0405579.0586491-.0338516.1175442-.0825939.1725368-.1446495l1.22019-1.376358c.0485992-.0547314.1001777-.0972939.1511898-.1267433z"/><path d="m20.0230141 19.1707897-1.3294716-.7726135c-.064394-.0374069-.1533566-.0316162-.2503929.0244122l-1.9861622 1.1467018c-.1746216.1008224-.3219109.3334484-.3468609.5463963l-.1915264 1.6512604c-.0221329.1925831-.1332836.4063854-.2851229.5437813-.9555206.8635578-1.8225107 1.9157238-2.5497971 3.0666256-.0737667.1170788-.1673079.2093678-.2620697.26408-.0577011.033308-.1158638.0526867-.1702337.0552235l-1.2317028.0575924c-.0474625.0022144-.097579.0191021-.1471262.0477066-.1157293.0668068-.2280445.1974869-.294198.3538532l-1.0792131 2.5380363c-.0904808.2125587-.0698385.4114609.0462151.478899l1.1697483.6797905c.0049582.0578537.0000544.1229877-.0160637.1927452-.1903353.8262062-.2915974 1.6462517-.2893763 2.4342613.0023565.8262711.1183023 1.5559578.3308239 2.1797562.0490055.1445618.0034943.3604164-.1130466.5496025l-.999136 1.6213799c-.1296253.2097778-.1527338.4473457-.0548296.5571747l1.1112337 1.257061c.0127325.0143814.027009.0260506.042531.03508l1.3294716.7726059c-.015523-.0090218-.0297995-.0206909-.0425043-.0350761l-1.1112614-1.2570648c-.0978756-.1098213-.0747681-.347393.0548306-.5571671l.9991627-1.6213837c.1165409-.1891861.1620255-.4050369.113019-.5496025-.2124939-.6237984-.3284664-1.3534851-.3308229-2.1797523-.0022221-.7880135.099041-1.6080608.2893753-2.434267.0442924-.1916828.0063124-.3500195-.0992031-.411335l-1.1555538-.6715412c-.0031147-.0796852.0139246-.1723576.0548573-.2685585l1.0792141-2.5380325c.0661535-.1563702.1784964-.2870502.294198-.3538532.0495472-.0286045.0996914-.0454941.1471252-.0477066l1.2317038-.0575962c.0543966-.0025368.1125317-.0219154.1702337-.0552235.0947609-.0547104.1883307-.1469994.2620697-.26408.7272863-1.150898 1.5942755-2.2030678 2.5497961-3.0666218.1518402-.1373997.262991-.351202.2851505-.5437813l.1915264-1.6512642c.0249233-.2129478.1722107-.44557.3468609-.5463963l1.9861336-1.1467018c.0970648-.0560286.1860274-.0618155.2503947-.0244067z"/></g><g><path d="m19.772625 19.1951981c.1746311-.1008244.3231049-.0389595.3491688.1445408l.1999016 1.4252701c.0235329.1666145.1358795.2509689.2879963.212883.926445-.2327805 1.7713299-.1942387 2.4877625.0884743.0758305.0301342.1702824.0143948.2654686-.0405598.0586319-.0338535.1175518-.082592.1725445-.1446514l1.2201805-1.3763542c.048584-.0547333.1001873-.0972958.1511898-.1267452.114193-.0659332.2253761-.0660954.2930431.010107l1.1112633 1.2566452c.0975246.1108494.0744247.3484192-.0548382.5575886l-.9991398 1.6213703c-.1169033.1893959-.1624126.4052505-.1130543.5492077.2125301.6237888.3284988 1.3538799.3308392 2.1797447.0022354.7884159-.0990391 1.6084652-.289362 2.4350777-.0469704.2032413-.0014381.3689785.1189804.4213562l1.0170593.442234c.1314411.0570202.158287.2649384.0638275.487854l-1.0791969 2.538023c-.0664291.1560268-.1787453.2867298-.2945518.35359-.0495052.0285835-.0996399.0455093-.1471214.0477715l-1.2313501.0573844c-.0545082.0026169-.1127014.0220184-.1704121.055336-.0947628.0547104-.1882648.146965-.2622547.2641792-.7269211 1.1506882-1.5942783 2.2026634-2.5494442 3.0664253-.1521606.1375885-.26297.3511887-.2854843.5439796l-.1911812 1.6506577c-.0249405.2133522-.1725769.4461746-.3472099.5470009l-1.986145 1.1467018c-.174633.1008263-.3227596.0387573-.3488255-.1451492l-.2002468-1.4246635c-.0231667-.1668243-.1355343-.2511673-.2879944-.212883-.9264259.232769-1.7713299.1942406-2.4874191-.089077-.0760031-.029747-.1703568-.0139656-.2654858.0409546-.058691.0338821-.1176863.0826683-.1728716.1448593l-1.2201805 1.3763542c-.0485458.0547562-.1001673.0973701-.1511908.1268272-.1140003.0658188-.2250681.0660362-.292696-.0103874l-1.1112461-1.257061c-.0978861-.1098251-.0747871-.3473969.054821-.5571747l.9991589-1.6213799c.116538-.1891861.1620474-.4050369.1130323-.5496025-.2125092-.6237984-.3284769-1.3534851-.3308191-2.1797562-.0022335-.7880096.099041-1.608057.2893648-2.4342613.0469503-.2032318.0014372-.3689804-.1189995-.4213486l-1.0174065-.44244c-.1310959-.0572205-.158288-.2649384-.0634813-.4876461l1.079217-2.5380344c.0661402-.1563702.1784744-.2870483.2941847-.3538551.0495443-.0286045.099679-.0454922.1471224-.0477047l1.2317162-.0575943c.0543718-.0025387.1125269-.0219154.1702185-.0552254.0947638-.0547104.188323-.1469994.2620821-.26408.7272863-1.150898 1.5942774-2.2030678 2.5497904-3.0666218.1518326-.1373997.262989-.3512001.2851372-.5437813l.1915283-1.6512623c.0249386-.2129478.1722298-.4455719.3468628-.5463963z" fill="#423751"/></g><g><path d="m26.3856544 29.339077-1.0796471 2.538229c-.0660191.155901-.1786327.2868328-.2940369.3534107-.0499535.0288506-.0998802.0454941-.1475849.0477104l-1.2311077.0577049c-.0543709.0022163-.1126137.021637-.1703148.0554771-.0948696.0543709-.1886559.1464691-.2624493.2640877-.7267723 1.1506653-1.5944939 2.2025719-2.5493088 3.0664024-.152029.1375923-.262991.3511925-.2857189.5437088l-.190876 1.6505394c-.02495.213604-.1725368.4466209-.3472958.5470428l-1.986187 1.1467781c-.1747856.100975-.3229141.0388374-.3489742-.1448021l-.200304-1.4247398c-.0227299-.166996-.1353703-.2513275-.287941-.2130432-.926506.233017-1.7709303.1941795-2.4871645-.089325-.0760145-.0294037-.1703424-.0138702-.2657537.0410576-.0588121.0338402-.1176243.0826645-.1725636.1448021l-1.2205687 1.3764687c-.048275.054924-.0998545.0976448-.1508923.1270523-.1142921.0654678-.2252531.066021-.2929516-.01054l-1.1112614-1.2571907c-.0976591-.109848-.0743618-.3473091.0549116-.5570221l.999217-1.6211395c.1165142-.1891861.1619987-.4050064.1131821-.5498085-.2124939-.6236-.3284397-1.3537254-.3306608-2.1798248-.0022221-.7878227.0987425-1.6078262.2890501-2.4344826.047164-.2030602.0016527-.3689461-.1187353-.4210968l-1.0175018-.4421787c-.0499544-.021637-.0843315-.0654659-.1032133-.123167.1831017.1092987.373951.2086067.5731173.2968216 2.9820728 1.3248692 6.5899792-.279623 8.0579891-3.5840378 1.0885334-2.4500141.695158-5.1463642-.7967186-6.9167423l.7489872-.4321918c.1747837-.1004238.3234539-.0388374.3495426.1448021l.1997337 1.425293c.02384.166441.1359119.2507687.287941.2124882.926506-.2324638 1.7714996-.1941814 2.4877338.0887699.0760136.0299587.1703148.0144253.2657528-.0404987.0582714-.0338459.1176262-.0826683.1725368-.1448078l1.2200279-1.3764687c.0488167-.054369.1004219-.0970898.1514606-.1264935.1137238-.066021.2252541-.066021.2929249.0099869l1.1112881 1.256628c.0970898.1109619.0743351.3484192-.0549393.5575809l-.9991894 1.6216927c-.1170826.1891861-.1625671.4050064-.1131821.5487022.2124939.624155.3284397 1.3542747.3312035 2.1798248.0022202.7883778-.0993137 1.6083775-.2895927 2.4350357-.0471649.2036133-.0016804.3689442.1187344.4216499l1.0175037.4421806c.1314949.0571443.1581234.2651959.0637973.4876729z" fill="#382e49"/></g><g><ellipse cx="18.248" cy="29.189" fill="#28223d" rx="5.175" ry="2.997" transform="matrix(.502 -.865 .865 .502 -16.158 30.301)"/></g><g><g><ellipse cx="18.807" cy="29.403" fill="#edeef2" rx="5.175" ry="2.997" transform="matrix(.502 -.865 .865 .502 -16.065 30.89)"/></g><g><path d="m22.4781742 27.2832336c.0064926 2.3293705-1.6322098 5.1675987-3.6597157 6.3376694-2.026804 1.1707954-3.6762438.2307129-3.6827011-2.0986614-.0007372-.1617107.0071592-.3255768.0222492-.4916019.3658524.1200256.7575331.1854267 1.1636372.1854267 2.0569496 0 3.7236576-1.6674252 3.7236576-3.7236862 0-.9487057-.3550434-1.8154831-.9393539-2.472393 1.8823223-.9055902 3.3657684.0539035 3.3722267 2.2632464z" fill="#e0e1ec"/></g></g></g><g><g><g><path d="m35.8995934 22.5509987-.5955544 1.4001369c-.0364151.0859985-.0985374.1582222-.1621971.1949482-.0275536.0159149-.0550957.025095-.0814095.0263195l-.6791039.0318298c-.0299911.0012226-.0621185.0119343-.0939484.0306034-.05233.0299911-.1040649.0807953-.1447716.1456757-.4009018.6347275-.8795547 1.2149811-1.40625 1.6914864-.0838623.0758991-.1450691.1937237-.157608.2999191l-.1052895.910471c-.0137634.1178284-.0951767.2463646-.1915741.3017578l-1.0956211.6325874c-.0538712.0312157-.1031399.0342751-.1383305.0131588-.0015392-.0006123-.0027657-.0015297-.0039902-.002449l-.7289848-.4232521c-.0284672-.0165291-.0480423-.0483551-.0544682-.0936489l-.0557079-.3966293c-.3090897.0165253-.5955544-.0281563-.8523121-.1297607-.0419312-.016222-.0939655-.0076523-.146595.022646-.0324421.0186672-.0648842.045599-.09519.0798759l-.6732903.7592869c-.0266285.0302982-.0550804.0538635-.0832348.0700855-.0511055.0293789-.1010017.0348873-.138031.0134659-.0012264-.0006123-.0024357-.0012264-.0036621-.0021439l-.7296104-.4238663c-.008564-.0052032-.0165272-.011631-.0235672-.0195866l-.6129913-.693182c-.0538712-.0605965-.0413189-.1915817.0302887-.3075714l.5511875-.8942528c.0642719-.1043587.0893612-.2234077.0624332-.3032856-.1175289-.3439884-.1814861-.7464333-.1827126-1.2024345-.0012245-.434576.0547829-.8869057.1597595-1.3426018.0088768-.038559.0116272-.0743675.0088768-.1065006l-.6454506-.3749008c-.0639572-.0370312-.075285-.1468983-.025404-.2641125l.5952568-1.4001369c.0367298-.0859985.0985508-.1582222.162508-.1949482.0272427-.0159149.0547829-.025095.0810986-.0263195l.6794167-.0318298c.0299911-.0015297.0621204-.0122395.0939484-.0306034.0520344-.0299911.1037521-.0811005.1444588-.1456738.4012146-.6347294.8795528-1.2152882 1.4065628-1.6914883.083847-.0758972.1450558-.1937237.1572933-.2999191l.1055908-.9110851c.0137768-.1172142.0948753-.2457485.1912746-.3011436l1.0956211-.6325874c.0535564-.0309105.1025257-.0342751.138031-.0134659l.7335873.4260101c-.0015373-.0009174-.0027657-.0015316-.0042877-.002142.0306015.015913.0520172.0483532.0587578.0954838l.0556946.3969345c.3094177-.0165253.5958672.0281582.8523254.1291504.0419312.0168324.0939484.0079575.1462822-.0223427.0324554-.0186672.0648842-.045599.0951881-.0795689l.6732903-.7592869c.0266266-.0302982.0550804-.0538635.0832329-.0700836.0514221-.0293808.1013031-.0351944.1383324-.0134659l.7326584.425703c.0088768.0048962.0168419.011322.0241814.0195866l.6130066.693182c.0535583.0612068.0410042.192194-.030304.3075714l-.5511742.894556c-.0645866.1043606-.0896759.2234097-.0624313.3026752.1172142.3442974.1811714.7470455.1826973 1.2024345.0012245.434885-.0547829.8872128-.1597443 1.343214-.0088768.0385609-.01194.0743675-.0091782.1061954l.6435966.3739815.0003166.0003071c.0654795.036112.0774195.1468985.0272258.2650301z" fill="#ff3d47"/></g></g><g fill="#ef253d"><path d="m35.1406174 21.8607006-.0097122-.0049076-.5610199-.2439442-.0109253-.0055179.7333793.4261856.0109062.0055179.5610352.2439442.009716.0049076z"/><path d="m30.9938393 28.136734-.1104603-.7858715c-.0071297-.0513-.0295429-.088459-.0625534-.107645l-.7333622-.4261856c.0330086.019186.0554237.0563431.0625381.107645l.1104603.7858715c.0064106.0451584.0261517.0769997.0545883.0935249l.7333622.4261856c-.0284366-.0165233-.0481758-.0483646-.054573-.0935249z"/><path d="m35.083847 17.0563049c.0511971-.0295582.1012878-.0351524.1383018-.0136471l-.7333603-.4261875c-.0370178-.0215054-.0871048-.0159092-.1383018.013649-.0281372.016243-.0566063.0397243-.0834007.0699158l-.6730804.759222c-.0303345.034235-.0628357.0611191-.0951729.079792-.0525131.0303154-.1046181.0389977-.1464462.0223751-.395195-.1559486-.861248-.1772099-1.3722973-.0488033-.0371189.0092926-.0699348.0053711-.0961304-.0098515l.7333622.4261875c.0261955.0152206.0590248.0191422.0961456.0098495.5110359-.1284046.9770889-.1071453 1.3722954.0488033.0418282.0166225.0939217.0079422.146431-.0223713.0323524-.0186749.0648422-.0455608.0951767-.0797939l.6730804-.7592239c.0268059-.0301913.0552597-.0536708.0833969-.0699157z"/><path d="m32.3898392 16.9419727-.7333641-.4261875c-.0355206-.0206337-.0845947-.0174408-.1381226.0134659l-1.0956039.6325436c-.0963249.0556164-.1775723.1839371-.1913357.301403l-.1056499.9108677c-.0122089.1062317-.0735226.2241688-.15728.2999611-.5270824.4763527-1.005331 1.0567493-1.406517 1.6916084-.0406914.0645847-.0922909.1154919-.1445618.1456718-.0318298.0183735-.0639133.0290642-.0939045.0304623l-.6794319.0317707c-.0261803.0012207-.0538273.0105362-.0811577.0263138-.063839.0368538-.1257935.1089382-.1622849.1951942l-.5953159 1.4000301c-.0499115.1172504-.0385246.2269688.0254936.2641697l.645256.3749847c.0027351.0319138.0000305.0678425-.0088615.1063232-.1049919.4557514-.1608505.9081039-.159626 1.3427849.0013008.4557877.065258.8582973.1824894 1.2023964.0270329.0797443.0019283.1988125-.0623589.3031712l-.5511417.8943863c-.0715046.115715-.0842514.2467632-.0302467.3073463l.612978.6934204c.0070248.0079327.0149002.01437.0234623.0193501l.7333622.4261856c-.0085621-.0049782-.0164375-.0114155-.023447-.0193501l-.6129932-.6934204c-.0539894-.0605812-.0412426-.1916294.0302467-.3073444l.551157-.8943863c.0642872-.1043606.0893764-.2234268.0623436-.3031731-.1172161-.344099-.1811886-.7466068-.1824894-1.2023945-.0012245-.4346828.0546341-.8870354.159626-1.3427868.0244331-.1057358.0034828-.193079-.0547218-.226902l-.6374264-.3704357c-.0017185-.0439548.0076809-.0950737.0302601-.14814l.5953159-1.4000282c.0364914-.0862579.0984612-.1583424.1622849-.1951923.0273323-.0157795.0549908-.0250969.0811577-.0263157l.6794319-.0317726c.0300064-.0013981.0620747-.0120888.0939045-.0304623.0522709-.03018.1038857-.0810871.1445618-.1456718.401186-.6348572.8794346-1.2152538 1.406517-1.6916065.0837593-.0757942.145071-.1937313.1572952-.2999611l.1056499-.9108696c.0137482-.117466.0949955-.2457848.1913357-.301403l1.0955906-.6325436c.0535392-.0309066.1026153-.0340976.1381225-.0134639z"/></g><g><path d="m32.2517166 16.9554386c.0963326-.0556183.1782303-.021492.1926079.079731l.1102715.7862072c.0129814.0919075.074955.1384392.1588631.1174297.5110474-.1284065.9771004-.1071453 1.3722992.0488033.041832.0166225.0939293.0079422.1464386-.0223732.032341-.0186729.0648422-.0455589.0951767-.079792l.6730766-.7592239c.0268021-.0301914.0552635-.0536709.0834007-.0699139.0629921-.0363712.124321-.0364609.1616478.0055752l.6129951.6931877c.0537949.0611477.0410538.1921959-.0302505.307579l-.5511436.8943787c-.0644875.104475-.089592.2235432-.0623627.3029537.1172333.3440933.1812019.7468262.1824951 1.2023888.0012321.434906-.0546303.8872604-.1596184 1.3432369-.0259094.112112-.0007935.2035351.0656319.2324276l.5610313.2439461c.072506.0314522.0873146.1461449.0352097.2691097l-.5953064 1.4000225c-.036644.0860672-.0986023.158165-.1624832.1950474-.0273056.0157661-.0549622.0251026-.0811539.0263519l-.6792374.0316544c-.0300674.001442-.0621681.012146-.0940018.0305233-.0522728.0301781-.1038513.0810699-.1446648.1457272-.4009857.6347427-.8794365 1.2150307-1.4063225 1.6914997-.0839348.0758953-.1450615.1937218-.1574783.3000698l-.1054611.9105339c-.0137558.117691-.0951958.2461205-.1915283.3017368l-1.0955944.6325436c-.0963326.0556164-.1780415.0213795-.1924191-.0800667l-.1104603-.7858715c-.0127792-.0920238-.0747643-.1385498-.158865-.1174297-.511034.1283989-.9770985.1071453-1.3721066-.049139-.0419254-.0164089-.0939732-.0077038-.1464481.0225906-.0323753.018692-.0649185.0456028-.0953598.0799084l-.6730747.7592239c-.0267792.0302029-.055254.0537109-.0833988.0699615-.0628853.0363064-.1241531.0364265-.1614571-.0057316l-.6129856-.6934204c-.0539951-.0605812-.041254-.1916294.030241-.3073463l.5511551-.8943863c.0642834-.1043568.0893879-.2234268.0623512-.3031712-.1172256-.344099-.1811943-.7466068-.1824875-1.2023945-.0012321-.4346809.0546341-.8870354.1596203-1.3427868.025898-.1121063.0007915-.203537-.0656433-.2324238l-.5612202-.2440586c-.0723152-.0315647-.0873146-.1461449-.0350189-.2689953l.5953178-1.4000301c.0364838-.086256.0984497-.1583405.1622772-.1951923.0273304-.0157776.054985-.025095.0811558-.0263157l.6794395-.0317688c.0299911-.0014.0620708-.0120888.093895-.0304642.0522747-.03018.1038837-.0810871.1445694-.1456718.401186-.6348572.8794346-1.2152538 1.4065151-1.6916084.0837536-.0757923.1450691-.1937275.1572876-.2999592l.1056499-.9108696c.0137577-.117466.095005-.2457867.1913357-.301403z" fill="#ff3d47"/></g><g><path d="m35.8995934 22.5509987-.5955544 1.4001369c-.0364151.0859985-.0985374.1582222-.1621971.1949482-.0275536.0159149-.0550957.025095-.0814095.0263195l-.6791039.0318298c-.0299911.0012226-.0621185.0119343-.0939484.0306034-.05233.0299911-.1040649.0807953-.1447716.1456757-.4009018.6347275-.8795547 1.2149811-1.40625 1.6914864-.0838623.0758991-.1450691.1937237-.157608.2999191l-.1052895.910471c-.0137634.1178284-.0951767.2463646-.1915741.3017578l-1.0956211.6325874c-.0964146.0556984-.1781254.0214233-.1925011-.0798779l-.1104908-.7859116c-.0125389-.0921192-.0746727-.1386375-.1588345-.1175213-.5110779.1285381-.9768791.1071148-1.3719673-.0492706-.0419312-.016222-.0939655-.0076523-.146595.022646-.0324421.0186672-.0648842.045599-.09519.0798759l-.6732903.7592869c-.0266285.0302982-.0550804.0538635-.0832348.0700855-.0630455.0361118-.1242542.0364189-.1615963-.0058155l-.6129932-.6934891c-.0538712-.0605965-.0410213-.1915817.0302887-.3072643l.5511875-.8942528c.0642719-.1043587.0893612-.2234097.0624332-.3032856-.1172161-.3439903-.1811733-.7467403-.1823978-1.2024345-.0012264-.4345779.0544682-.8869076.1594448-1.342907.0260181-.112011.0009117-.2035179-.0654964-.2322845l-.5612736-.2439137c-.0275555-.0119362-.0465183-.0361137-.0569344-.0679436.1010017.0602913.2062778.1150723.316143.1637344 1.644968.7308235 3.6351604-.1542473 4.4449444-1.977026.6004562-1.3514748.383461-2.8388348-.4394855-3.8154106l.4131527-.2384052c.0964165-.0553951.1784248-.0214233.1928177.0798759l.1101761.7862206c.0131493.0918121.0749702.1383286.1588326.1172123.5110817-.128231.9771957-.1071148 1.3722839.0489674.0419312.0165253.0939484.0079575.146595-.0223408.0321426-.0186691.0648842-.0456009.0951729-.0798779l.6729927-.7592869c.0269279-.0299911.0553932-.0535583.0835495-.0697765.0627289-.0364189.1242523-.0364189.1615829.0055084l.6130066.693182c.0535583.0612068.0410042.192194-.030304.3075714l-.5511742.894556c-.0645866.1043606-.0896759.2234097-.0624313.3026752.1172142.3442974.1811714.7470455.1826973 1.2024345.0012245.434885-.0547829.8872128-.1597443 1.343214-.0260201.1123161-.000927.203516.0654945.2325897l.5612755.2439156c.0725329.0315212.0872233.1462864.0351909.269009z" fill="#f72d40"/></g><g><ellipse cx="31.411" cy="22.468" fill="#e8183b" rx="2.855" ry="1.653" transform="matrix(.502 -.865 .865 .502 -3.798 38.337)"/></g><g><g><ellipse cx="31.719" cy="22.586" fill="#edeef2" rx="2.855" ry="1.653" transform="matrix(.502 -.865 .865 .502 -3.746 38.662)"/></g><g><path d="m33.7441521 21.4169559c.003582 1.2849255-.9003601 2.8505478-2.0187702 3.4959831-1.1180248.6458321-2.0278893.127264-2.0314503-1.1576633-.0004063-.0892029.0039482-.1795959.0122738-.2711773.2018108.0662079.4178696.1022854.6418858.1022854 1.1346531 0 2.054039-.9197845 2.054039-2.0540581 0-.523325-.1958466-1.0014553-.5181656-1.363821 1.0383262-.4995403 1.8566245.0297356 1.8601875 1.2484512z" fill="#e0e1ec"/></g></g></g></g></g></svg>