<svg id="Layer_1" enable-background="new 0 0 512 512" viewBox="0 0 512 512" xmlns="http://www.w3.org/2000/svg"><g id="Layer_2_00000016052250480929567490000011426429356513913264_"><g id="question_mark" fill="#ff2147"><path d="m250.4 511.9c-15.5 0-31 0-46.4 0-10.5 0-17.5-6.8-17.6-17.2 3.8-120.5-21.7-111.3 65.3-110.8 83.6-.6 58.9-8.8 62.7 109.3 0 12.3-6.4 18.7-18.6 18.7z"/><path d="m248.5 358.4c-15.1 0-30.3-.1-45.4.1-12.3.8-14.8-13.3-16.5-22.6-4.3-40 12.3-71.1 41.8-96.7 20.7-19.8 48.9-28 70.8-45.9 20.4-17.6 18.4-47.2-3.4-62.9-23.6-16.9-61.2-18.7-85.5-3-17.1 12-29.8 29.7-43.3 45.5-8 9.5-15.9 10.6-25.8 3-20.8-15.7-41.5-31.5-62.2-47.4-8.7-6.7-9.9-14.4-4.2-23.8 57.1-104.6 202.7-138.6 298.1-65.8 64 41.6 92.3 135.2 42.5 198.3-19.5 27.5-52.4 39.4-78.2 59.5-36.3 30.6-13.5 59.5-43.3 61.7-15.1 0-30.3 0-45.4 0z"/></g></g></svg>