<svg height="512pt" viewBox="0 0 512 512" width="512pt" xmlns="http://www.w3.org/2000/svg"><path d="m512 256c0 141.386719-114.613281 256-256 256s-256-114.613281-256-256 114.613281-256 256-256 256 114.613281 256 256zm0 0" fill="#40deed"/><path d="m512 256c0-21.183594-2.589844-41.757812-7.441406-61.441406l-102.558594-102.558594-74.355469 20 41 41h-113l68.527344 68.527344-133.027344-2.53125 69.949219 69.949218-134.441406-3.933593 66.242187 66.242187-118.394531-.253906 45.019531 45.019531-38.519531 4.980469 99.753906 99.753906c23.792969 7.304688 49.058594 11.246094 75.246094 11.246094 141.386719 0 256-114.613281 256-256zm0 0" fill="#1eb8d1"/><path d="m330 112v41h-64.5v66h-64.5v66h-64.5v66h-55.5v50h321v-289zm0 0" fill="#966442"/><path d="m201 255.90625v29.09375h-64.5v66h-55.5v50h321v-145.09375zm0 0" fill="#66402d"/><path d="m74.5 331h62v20h-62zm0 0" fill="#fdba12"/><path d="m126.652344 265.011719h74.351562v20h-74.351562zm0 0" fill="#fdba12"/><g fill="#ffda00"><path d="m191.144531 198.996094h74.355469v20h-74.355469zm0 0"/><path d="m255.644531 133h74.355469v20h-74.355469zm0 0"/><path d="m327.644531 92h74.355469v20h-74.355469zm0 0"/></g></svg>