<svg fill="none" height="50" viewBox="0 0 50 50" width="50" xmlns="http://www.w3.org/2000/svg" xmlns:xlink="http://www.w3.org/1999/xlink"><linearGradient id="paint0_linear_4_3301" gradientUnits="userSpaceOnUse" x1="24.999" x2="24.999" y1="4.071" y2="45.933"><stop offset="0" stop-color="#f12711"/><stop offset="1" stop-color="#f5ae19"/></linearGradient><path d="m46.3847 5.05775c-.5932-.49347-1.309-.81688-2.0714-.93582s-1.5428-.02895-2.2581.26038l-37.33516 15.07369c-.79843.3285-1.47809.892-1.94875 1.6158s-.71006 1.5737-.68644 2.4367c.02362.8631.30915 1.6985.81869 2.3955s1.219 1.2225 2.03421 1.5069l7.55205 2.6265 4.2094 13.9201c.0572.1859.1402.3629.2466.5258.0162.025.0389.0436.0561.0679.1229.1715.2715.3231.4405.4495.0481.0366.0941.071.1455.1035.1977.1312.4168.2272.6473.2836l.0247.0021.014.0059c.1386.0282.2796.0425.4211.0428.0136 0 .0257-.0065.0392-.0068.2134-.0037.425-.0405.6272-.109.0471-.016.0874-.0428.133-.0621.1508-.0625.2937-.1426.4256-.2387.1057-.0891.2114-.1781.3172-.267l5.6295-6.2154 8.3964 6.5043c.7392.5755 1.649.8883 2.5858.8891.9816-.0013 1.933-.34 2.6946-.9593.7616-.6194 1.2871-1.4817 1.4884-2.4425l6.7973-33.3678c.154-.75101.101-1.52976-.1535-2.25294-.2544-.72319-.7007-1.36359-1.291-1.85271zm-26.8636 25.64295c-.2889.2877-.4864.6543-.5676 1.0538l-.6449 3.1334-1.6334-5.4023 8.4693-4.4103zm17.2953 11.0493-9.9223-7.6864c-.4151-.3207-.9358-.4733-1.4584-.4273s-1.0087.2872-1.3614.6755l-1.8029 1.99.6371-3.0967 14.7563-14.7563c.3522-.3517.5668-.818.6049-1.3143s-.1028-.9899-.3972-1.3913-.7228-.684-1.2077-.7968c-.4848-.1128-.994-.0482-1.4353.1821l-21.1777 11.0263-7.75907-2.8394 37.45517-14.98417z" fill="url(#paint0_linear_4_3301)"/></svg>